<?xml version="1.0" encoding="UTF-8"?><svg id="venn-diagram" xmlns="http://www.w3.org/2000/svg" width="433.77" height="231.98" xmlns:xlink="http://www.w3.org/1999/xlink" viewBox="0 0 433.77 231.98"><defs><pattern id="Undulating_Fine_Lines" x="0" y="0" width="60" height="72" patternTransform="translate(3345.91 -15104.38) rotate(-76) scale(1.21 1.16)" patternUnits="userSpaceOnUse" viewBox="0 0 60 72"><rect width="60" height="72" fill="none"/><line x1="59.63" y1="0" x2="59.63" y2="72" fill="none" stroke="#d9e021" stroke-width=".75"/><line x1="30" y1="0" x2="30" y2="72" fill="none" stroke="#d9e021" stroke-width=".75"/><line x1="26.2" y1="0" x2="26.2" y2="72" fill="none" stroke="#d9e021" stroke-width=".75"/><line x1="22.41" y1="0" x2="22.41" y2="72" fill="none" stroke="#d9e021" stroke-width=".75"/><line x1="18.61" y1="0" x2="18.61" y2="72" fill="none" stroke="#d9e021" stroke-width=".75"/><line x1="14.81" y1="0" x2="14.81" y2="72" fill="none" stroke="#d9e021" stroke-width=".75"/><line x1="11.01" y1="0" x2="11.01" y2="72" fill="none" stroke="#d9e021" stroke-width=".75"/><line x1="7.22" y1="0" x2="7.22" y2="72" fill="none" stroke="#d9e021" stroke-width=".75"/><line x1="3.42" y1="0" x2="3.42" y2="72" fill="none" stroke="#d9e021" stroke-width=".75"/><line x1="-.37" y1="0" x2="-.37" y2="72" fill="none" stroke="#d9e021" stroke-width=".75"/><line x1="33.8" y1="0" x2="33.8" y2="72" fill="none" stroke="#d9e021" stroke-width=".75"/><line x1="37.59" y1="0" x2="37.59" y2="72" fill="none" stroke="#d9e021" stroke-width=".75"/><line x1="41.39" y1="0" x2="41.39" y2="72" fill="none" stroke="#d9e021" stroke-width=".75"/><line x1="45.19" y1="0" x2="45.19" y2="72" fill="none" stroke="#d9e021" stroke-width=".75"/><line x1="48.98" y1="0" x2="48.98" y2="72" fill="none" stroke="#d9e021" stroke-width=".75"/><line x1="52.78" y1="0" x2="52.78" y2="72" fill="none" stroke="#d9e021" stroke-width=".75"/><line x1="56.58" y1="0" x2="56.58" y2="72" fill="none" stroke="#d9e021" stroke-width=".75"/></pattern><pattern id="Undulating_Fine_Lines-2" patternTransform="translate(3049.63 -15062.66) rotate(-76.77) scale(1.2 1.14) skewX(-1.51)" xlink:href="#Undulating_Fine_Lines"/><pattern id="Undulating_Fine_Lines-3" patternTransform="translate(2340.72 -14828.36) rotate(-77.32) scale(1.17 1.06) skewX(-2.52)" xlink:href="#Undulating_Fine_Lines"/></defs><path id="shade-data" d="M138.23,29.35c-14.67,1.07-27.41,54.97-21.35,68.13,2.3.95,11.04-7.69,24.73-10.86,17.55-4.07,25.08-4.73,28.95-4.77,7.02-.07-11.69-32.53-13.65-37.61-1.58-4.1-14.99-14.89-18.68-14.89Z" fill="url(#Undulating_Fine_Lines)" opacity=".97"/><path id="shade-infra" d="M173.43,113.92c0,10.46-17.9,26.43-17.76,30.16.09,2.49,3.36,2.81,8.71,4.66,20.04,6.94,16.89,8.13,25.96,10.2,11.99,2.73,21.26,1.49,32.33,0,14.23-1.91,22.8-7.71,28.96-11.06,2.75-1.49-.06-6.2-2.53-11.33-5.2-10.79-9.97-20.7-21.64-31.54-14.88-13.83-41.35-22.77-51.3-25.45" fill="url(#Undulating_Fine_Lines-2)" opacity=".97"/><path id="shade-policy" d="M115.37,102.26c2.37.89,1.71,3.5,5.43,12.31,2.73,6.47,7.33,17.38,16.6,25.28,5.53,4.71,8.64,4.89,9.05,7.98.75,5.78-9.27,11.6-15.57,15.26-12.52,7.27-23.05,8.86-36.41,10.74-8.74,1.23-10.24.67-11.35-.23-7.57-6.11.5-29.49,6.27-41.68,6.77-14.31,19.33-32.16,25.99-29.66Z" fill="url(#Undulating_Fine_Lines-3)" opacity=".97"/><g id="circle-power" opacity=".67"><path d="M169.87,92.91c-.04,16.29-5.47,32.18-15.32,45.14-9.88,13.01-23.8,22.82-39.25,28.07-16.54,5.62-34.7,6.19-51.57,1.68-15.96-4.27-30.66-13.1-41.63-25.5S4.57,114.91,3.18,98.78s2.84-32.76,11.71-46.5c8.84-13.69,21.97-24.35,36.93-30.69,16-6.78,34.08-8.56,51.13-5.26s31.78,10.98,43.7,22.66c11.51,11.27,19.51,25.92,22.2,41.85.67,3.99,1.01,8.03,1.02,12.08,0,1.38,2.92.85,2.92-.29-.04-16.77-5.7-33.06-15.91-46.35s-24.7-23.3-40.65-28.68c-17.07-5.76-35.85-6.3-53.26-1.71-16.5,4.35-31.8,13.39-43.18,26.16S1.65,70.12.26,86.68s2.95,33.51,12.1,47.56c9.19,14.1,22.82,24.99,38.3,31.47,16.62,6.95,35.19,8.68,52.87,5.36,16.87-3.17,32.81-11.19,45.18-23.11s20.29-26.62,23.05-43c.69-4.07,1.02-8.2,1.03-12.33,0-1.38-2.92-.86-2.92.29Z"/></g><g id="cirlce-cities" opacity=".62"><path d="M249.12,157.34c-.04,15.48-5.76,30.39-15.62,42.28s-24.38,21.28-39.67,26.07c-16.83,5.27-35.13,5.79-52.25,1.56-15.86-3.92-30.81-11.97-42.16-23.82-10.61-11.08-17.71-25.31-19.14-40.66s3.04-30.8,11.87-43.42,22.62-22.84,37.43-28.63c16.34-6.39,34.57-7.96,51.82-4.88,16.27,2.9,31.95,10.05,44.25,21.18,11.38,10.3,19.69,23.91,22.45,39.1.67,3.71,1.01,7.46,1.02,11.23,0,1.38,2.92.85,2.92-.29-.04-15.91-5.97-31.16-16.12-43.35-10.66-12.79-25.34-21.89-41.17-26.82-17.42-5.42-36.39-5.89-54.09-1.55-16.35,4.01-31.8,12.29-43.54,24.44-10.93,11.32-18.33,25.99-19.76,41.76s3.14,31.56,12.27,44.47,23.37,23.42,38.64,29.35c16.93,6.58,35.79,8.23,53.65,5.06,16.84-2.99,32.94-10.24,45.76-21.66,11.8-10.51,20.48-24.6,23.32-40.24.69-3.79,1.02-7.63,1.03-11.48,0-1.38-2.92-.86-2.92.29Z"/></g><g id="circle-systems" opacity=".45"><path d="M290.7,81.98c-.04,16.77-5.84,33.09-16.18,46.27-10.55,13.45-25.24,23.41-41.45,28.74-17.48,5.75-36.61,6.31-54.41,1.66-16.66-4.36-32.13-13.32-43.75-26.09-11.21-12.33-18.46-27.99-19.92-44.64s3.06-33.55,12.32-47.51,23.3-25.01,38.96-31.47C183.2,1.96,202.25.16,220.23,3.56s33.42,11.18,46.08,23.25c12,11.44,20.48,26.38,23.32,42.78.71,4.09,1.07,8.24,1.08,12.39,0,1.38,2.92.85,2.92-.29-.04-17.26-6.08-33.95-16.78-47.47-10.89-13.76-26.06-23.83-42.68-29.3-18.05-5.94-37.87-6.49-56.26-1.74-17.15,4.42-33.16,13.56-45.19,26.63s-19.19,28.74-20.65,45.86,3.17,34.3,12.72,48.57,24.16,25.65,40.33,32.25c17.52,7.14,37.09,8.91,55.66,5.49,17.68-3.26,34.45-11.39,47.58-23.72,12.42-11.66,21.26-27.08,24.18-43.93.72-4.17,1.08-8.4,1.09-12.64,0-1.38-2.92-.86-2.92.29Z"/></g><path d="M217.18,76.98c0,1.13-.71,1.99-2.11,2.6-1.13.48-2.34.73-3.63.73-1.19,0-2.49-.24-3.9-.73-1.81-.62-2.72-1.4-2.72-2.33,0-.5.24-.76.73-.76.38,0,.83.22,1.33.66.7.66,1.09,1.02,1.15,1.06.77.5,2,.76,3.72.76,2.3,0,3.44-.6,3.44-1.81,0-.56-.49-1.26-1.48-2.08-.16-.12-.92-.66-2.27-1.63-2.16-1.53-3.51-2.6-4.08-3.2-1.27-1.35-1.9-2.92-1.9-4.71,0-1.65.47-3.16,1.42-4.53,1.05-1.53,2.37-2.3,3.96-2.3,1.35,0,2.51.57,3.47,1.72.84,1.01,1.4,2.23,1.66,3.66.02.48.1,1.22.24,2.2l.24,1.09c0,1.61-.39,2.42-1.18,2.42-.2,0-.41-.12-.62-.35s-.32-.45-.32-.65c0-.28.06-.7.17-1.24.11-.54.17-.96.17-1.24,0-1.39-.22-2.62-.66-3.69-.58-1.45-1.46-2.17-2.64-2.17s-2.16.52-2.95,1.56c-.79,1.04-1.18,2.17-1.18,3.4,0,1.65.86,3.22,2.59,4.71,1.59,1.15,3.18,2.31,4.79,3.47,1.71,1.25,2.56,2.38,2.56,3.38Z"/><path d="M228.23,67.7c-.17.89-.32,1.77-.47,2.66-.19.95-.28,1.83-.28,2.66v9.45c0,1.35-.41,2.42-1.22,3.22-.82.8-1.91,1.19-3.28,1.19-.75,0-1.58-.2-2.51-.6-1.07-.44-1.8-1-2.21-1.66-.1-.18-.15-.36-.15-.54,0-.58.28-.88.85-.88.12,0,.25.04.39.12.34.36.68.71,1.03,1.06.68.62,1.55.94,2.6.94,1.33,0,2.21-.46,2.66-1.39.26-.58.39-1.64.39-3.17,0-.2-.04-.6-.12-1.21-.08-.5-.1-.95-.06-1.33-.56.52-.97.86-1.21,1-.44.28-.93.42-1.45.42-1.37,0-2.41-.53-3.11-1.6-.62-.93-.94-2.1-.94-3.53,0-2.72.04-5.02.12-6.89.08-.64.43-.97,1.06-.97.77,0,1.11.13,1.03.39-.38,1.05-.57,3.39-.57,7.04,0,2.82.8,4.23,2.4,4.23.98,0,1.76-.76,2.34-2.27.44-1.17.65-2.35.63-3.53v-3.44c.02-.34.04-.78.08-1.3.03-.52.36-.77.98-.73.72.06,1.07.28,1.03.66Z"/><path d="M238.23,77.79c0,.71-.53,1.3-1.6,1.79-.89.38-1.74.58-2.57.58-.54,0-1.17-.13-1.87-.4-.38-.16-1-.59-1.84-1.28-.93-.75-1.39-1.27-1.39-1.55,0-.63.37-.91,1.12-.85h.18c.04.61.68,1.27,1.93,1.98,1.13.65,2.03.98,2.72.98.89,0,1.33-.3,1.33-.91,0-.36-.54-.87-1.63-1.51-1.49-.87-2.51-1.56-3.05-2.09-1.11-1.07-1.66-2.3-1.66-3.69,0-1.05.27-2.05.82-3,.62-1.13,1.41-1.7,2.36-1.7.68,0,1.51.32,2.48.95.97.63,1.53,1.27,1.69,1.92.16.54.24,1.18.24,1.9,0,.79-.14,1.64-.42,2.57-.18.14-.39.21-.63.21-.14,0-.36-.05-.66-.17s-.45-.23-.45-.35c0,.08.11-.14.33-.66.16-.34.24-.97.24-1.87,0-2.15-.67-3.23-2.02-3.23-.71,0-1.27.47-1.69,1.42-.36.77-.54,1.54-.54,2.33,0,.99.57,1.95,1.72,2.88.38.32,1.44,1.02,3.17,2.09,1.15.71,1.72,1.26,1.72,1.67Z"/><path d="M244.76,70.03c-.16.12-.54.22-1.15.3-.66.08-1.05.15-1.15.21-.02.22-.03,1.34-.03,3.35,0,1.57.02,2.63.06,3.17,0,.22.05.57.15,1.06.1.48.15.86.15,1.12,0,.16-.1.32-.3.48-.2.16-.38.24-.54.24-.4,0-.73-.41-.97-1.24-.16-.6-.24-1.18-.24-1.72v-6.28c-.12-.1-.57-.1-1.35,0-.63.08-.94-.15-.94-.7,0-.77.82-1.12,2.45-1.06l.39-5.47c0-.06-.03-.16-.08-.29-.05-.13-.08-.23-.08-.29,0-.12.08-.24.24-.35.16-.11.35-.16.57-.14.7.06,1.06.41,1.06,1.06,0,.5-.07,1.26-.21,2.27-.14,1.01-.21,1.75-.21,2.24,0,.24.02.47.06.69l1.66-.09c.56,0,.84.22.84.66,0,.32-.13.57-.39.76Z"/><path d="M254.39,76.56c0,.89-.59,1.68-1.78,2.39-1.07.64-2.07.97-3.02.97-2.7,0-4.05-1.71-4.05-5.14,0-1.51.27-3.13.82-4.86.73-2.26,1.65-3.38,2.78-3.38.97,0,2.02.49,3.17,1.46,1.15.98,1.72,1.95,1.72,2.92,0,1.25-.5,2.34-1.51,3.26-1.01.93-2.15,1.39-3.41,1.39-.12,0-.38-.1-.77-.3s-.66-.3-.8-.3c-.26,0-.39.08-.39.24,0,2.32.76,3.47,2.3,3.47.78,0,1.51-.26,2.17-.79.4-.3.85-.78,1.33-1.42.38-.5.63-.76.76-.76.46,0,.7.28.7.85ZM252.31,71c0-.7-.2-1.36-.6-1.98-.4-.61-.94-.92-1.6-.92-.81,0-1.46.5-1.96,1.51-.42.85-.63,1.72-.63,2.63,0,.58.19,1.07.56,1.46.37.39.85.59,1.43.59.82,0,1.51-.35,2.05-1.06.5-.64.76-1.39.76-2.24Z"/><path d="M269.62,79.76c-.42.26-.74.39-.97.39-.14,0-.34-.07-.6-.21v-3.27c0-6.22-.64-9.33-1.91-9.33-.76,0-1.41.97-1.97,2.9-.44,1.55-.66,2.86-.66,3.93v3.02c0,.16.04.39.14.68.09.29.14.51.14.65,0,.16-.11.32-.33.48-.22.16-.41.24-.57.24-.18,0-.38-.13-.6-.38-.22-.25-.33-.47-.33-.65v-6.07c0-.64-.11-1.46-.33-2.45-.28-1.25-.62-1.87-1.03-1.87-.22,0-.55.28-1,.85-1.51,1.93-2.27,4.31-2.27,7.13,0,.34.04.85.12,1.53.08.67.12,1.17.12,1.5,0,.6-.25.91-.76.91-.24,0-.45-.1-.63-.3-.08-.1-.17-.55-.27-1.36-.1-.73-.15-1.22-.15-1.48v-7.13c0-2.05.24-3.08.72-3.08.2,0,.41.1.62.29.21.19.32.39.32.59,0,.42-.06.98-.18,1.66-.12.89-.19,1.44-.21,1.66l.15.15c.38-.87.76-1.73,1.15-2.6.54-1.11,1.19-1.66,1.93-1.66,1.05,0,1.95,1.13,2.72,3.38.2-.24.45-.75.76-1.51s.57-1.31.82-1.63c.38-.48.86-.73,1.42-.73s1.15.36,1.81,1.09c1.23,1.31,1.84,3.68,1.84,7.11v5.57Z"/><path d="M279.92,77.79c0,.71-.53,1.3-1.6,1.79-.89.38-1.74.58-2.57.58-.54,0-1.17-.13-1.87-.4-.38-.16-1-.59-1.84-1.28-.93-.75-1.39-1.27-1.39-1.55,0-.63.37-.91,1.12-.85h.18c.04.61.68,1.27,1.93,1.98,1.13.65,2.03.98,2.72.98.89,0,1.33-.3,1.33-.91,0-.36-.54-.87-1.63-1.51-1.49-.87-2.51-1.56-3.05-2.09-1.11-1.07-1.66-2.3-1.66-3.69,0-1.05.27-2.05.82-3,.62-1.13,1.41-1.7,2.36-1.7.68,0,1.51.32,2.48.95.97.63,1.53,1.27,1.69,1.92.16.54.24,1.18.24,1.9,0,.79-.14,1.64-.42,2.57-.18.14-.39.21-.63.21-.14,0-.36-.05-.66-.17s-.45-.23-.45-.35c0,.08.11-.14.33-.66.16-.34.24-.97.24-1.87,0-2.15-.67-3.23-2.02-3.23-.71,0-1.27.47-1.69,1.42-.36.77-.54,1.54-.54,2.33,0,.99.57,1.95,1.72,2.88.38.32,1.44,1.02,3.17,2.09,1.15.71,1.72,1.26,1.72,1.67Z"/><path d="M150.57,198c0,.32-.09.75-.27,1.27-.42,1.23-1.28,2.22-2.57,2.96-1.19.68-2.48,1.03-3.87,1.03-2.36,0-4.13-.97-5.32-2.9-1.01-1.59-1.51-3.64-1.51-6.13,0-2.13.31-4.15.94-6.04.71-2.21,1.75-3.93,3.14-5.14,1.03-.91,2.06-1.36,3.11-1.36,1.55,0,2.71.75,3.47,2.24.6,1.17.91,2.61.91,4.32,0,.85-.13,1.82-.39,2.93-.34,1.45-.79,2.17-1.33,2.17-.42,0-.73-.22-.91-.66.12-.08.31-.22.57-.42.52-.5.79-1.73.79-3.69,0-1.19-.22-2.33-.66-3.41-.56-1.41-1.34-2.11-2.33-2.11-.79,0-1.61.47-2.48,1.42-.64.71-1.2,1.52-1.66,2.45-1.03,2.13-1.54,4.76-1.54,7.88,0,2.07.36,3.73,1.09,4.95.91,1.53,2.32,2.3,4.23,2.3,1.05,0,2-.28,2.87-.83.87-.55,1.53-1.29,1.99-2.22.08-.3.25-.73.51-1.27.16-.26.36-.39.6-.39.4,0,.6.22.6.66Z"/><path d="M153.8,190.84c0,.36-.09.91-.26,1.63-.17.72-.26,1.27-.26,1.63v6.68c0,.44.1,1.05.3,1.81-.08.16-.19.24-.33.24-.99,0-1.48-.47-1.48-1.42v-11.09c.26-.14.51-.21.76-.21s.49.07.76.21c.34.14.51.31.51.51ZM154.37,186.31c0,.68-.32,1.03-.97,1.03-.38,0-.74-.14-1.06-.42-.32-.28-.48-.6-.48-.97,0-.68.34-1.03,1.03-1.03.4,0,.75.13,1.04.39.29.26.44.59.44,1Z"/><path d="M160.96,193.13c-.16.12-.54.22-1.15.3-.66.08-1.05.15-1.15.21-.02.22-.03,1.34-.03,3.35,0,1.57.02,2.63.06,3.17,0,.22.05.57.15,1.06.1.48.15.86.15,1.12,0,.16-.1.32-.3.48-.2.16-.38.24-.54.24-.4,0-.73-.41-.97-1.24-.16-.6-.24-1.18-.24-1.72v-6.28c-.12-.1-.57-.1-1.35,0-.63.08-.94-.15-.94-.7,0-.77.82-1.12,2.45-1.06l.39-5.47c0-.06-.03-.16-.08-.29-.05-.13-.08-.23-.08-.29,0-.12.08-.24.24-.35.16-.11.35-.16.57-.14.71.06,1.06.41,1.06,1.06,0,.5-.07,1.26-.21,2.27-.14,1.01-.21,1.75-.21,2.24,0,.24.02.47.06.69l1.66-.09c.56,0,.85.22.85.66,0,.32-.13.57-.39.76Z"/><path d="M165.04,190.84c0,.36-.09.91-.26,1.63-.17.72-.26,1.27-.26,1.63v6.68c0,.44.1,1.05.3,1.81-.08.16-.19.24-.33.24-.99,0-1.48-.47-1.48-1.42v-11.09c.26-.14.51-.21.76-.21s.49.07.76.21c.34.14.51.31.51.51ZM165.61,186.31c0,.68-.32,1.03-.97,1.03-.38,0-.74-.14-1.06-.42-.32-.28-.48-.6-.48-.97,0-.68.34-1.03,1.03-1.03.4,0,.75.13,1.04.39.29.26.44.59.44,1Z"/><path d="M175.49,199.66c0,.89-.59,1.68-1.78,2.39-1.07.64-2.07.97-3.02.97-2.7,0-4.05-1.71-4.05-5.14,0-1.51.27-3.13.82-4.86.73-2.26,1.65-3.38,2.78-3.38.97,0,2.02.49,3.17,1.46,1.15.98,1.72,1.95,1.72,2.92,0,1.25-.5,2.34-1.51,3.26-1.01.93-2.14,1.39-3.41,1.39-.12,0-.38-.1-.77-.3s-.66-.3-.8-.3c-.26,0-.39.08-.39.24,0,2.32.76,3.47,2.3,3.47.79,0,1.51-.26,2.17-.79.4-.3.85-.78,1.33-1.42.38-.5.63-.76.76-.76.46,0,.7.28.7.85ZM173.41,194.1c0-.7-.2-1.36-.6-1.98-.4-.61-.94-.92-1.6-.92-.81,0-1.46.5-1.96,1.51-.42.85-.63,1.72-.63,2.63,0,.58.19,1.07.56,1.46.37.39.85.59,1.43.59.83,0,1.51-.35,2.05-1.06.5-.64.76-1.39.76-2.24Z"/><path d="M185.64,200.89c0,.71-.53,1.3-1.6,1.79-.89.38-1.74.58-2.57.58-.54,0-1.17-.13-1.87-.4-.38-.16-1-.59-1.84-1.28-.93-.75-1.39-1.27-1.39-1.55,0-.63.37-.91,1.12-.85h.18c.04.61.68,1.27,1.93,1.98,1.13.65,2.03.98,2.72.98.89,0,1.33-.3,1.33-.91,0-.36-.54-.87-1.63-1.51-1.49-.87-2.51-1.56-3.05-2.09-1.11-1.07-1.66-2.3-1.66-3.69,0-1.05.27-2.05.82-3,.62-1.13,1.41-1.7,2.36-1.7.68,0,1.51.32,2.48.95.97.63,1.53,1.27,1.69,1.92.16.54.24,1.18.24,1.9,0,.79-.14,1.64-.42,2.57-.18.14-.39.21-.63.21-.14,0-.36-.05-.66-.17s-.45-.23-.45-.35c0,.08.11-.14.33-.66.16-.34.24-.97.24-1.87,0-2.15-.67-3.23-2.02-3.23-.71,0-1.27.47-1.69,1.42-.36.77-.54,1.54-.54,2.33,0,.99.57,1.95,1.72,2.88.38.32,1.44,1.02,3.17,2.09,1.15.71,1.72,1.26,1.72,1.67Z"/><path d="M42.67,81.98c-.83,5.12-2.99,7.57-6.49,7.37-1.89-.12-3.49-.74-4.8-1.87l-.21.15v1.24c-.02,1.19.08,2.06.3,2.63.02.06.13.27.33.62.2.35.3.57.3.65,0,.24-.09.47-.27.68-.18.21-.4.32-.66.32-.6,0-1.03-.2-1.27-.6-.16-.3-.26-.79-.3-1.45-.06-1.03-.09-2.06-.09-3.11,0-.6.05-1.51.14-2.72.09-1.21.13-2.13.12-2.76-.01-.63.03-1.57.14-2.81.1-1.24.15-2.16.15-2.76v-2.87c0-.14-.04-.36-.11-.66s-.11-.52-.11-.66c0-.38.26-.57.79-.57.34,0,.63.15.86.45.23.3.35.62.35.97,0,.26-.04.63-.14,1.12s-.14.86-.14,1.12v.79c.46-.81.92-1.61,1.39-2.42,1.09-1.51,2.52-2.27,4.31-2.27,1.93,0,3.38.8,4.37,2.39.8,1.31,1.2,2.97,1.2,4.98,0,.71-.05,1.4-.15,2.08ZM41.31,80.27c0-1.57-.27-2.96-.81-4.15-.7-1.55-1.74-2.33-3.1-2.33-1.77,0-3.26,1.18-4.49,3.53-1.04,2.01-1.57,4-1.57,5.95v1.6c.2-.1.35-.15.45-.15.14,0,.27.1.38.3.11.2.21.34.29.4-.02.06-.05.08-.09.06-.04-.02-.06,0-.06.06,0,.1.08.28.24.55.78,1.22,1.99,1.83,3.61,1.83,1.52,0,2.67-.5,3.43-1.51.58-.75,1.04-1.94,1.39-3.57.22-1.15.33-2.01.33-2.57Z"/><path d="M53.67,87.45c0,1.73-.38,3.24-1.15,4.53-.91,1.55-2.17,2.33-3.78,2.33s-2.85-.63-3.66-1.9c-.66-1.05-1-2.44-1-4.17s.38-3.39,1.15-5.05c.97-2.03,2.19-3.05,3.69-3.05.38,0,.93.22,1.63.66,2.07,1.29,3.11,3.5,3.11,6.65ZM52.22,87.42c0-1.29-.17-2.45-.51-3.47-.5-1.43-1.28-2.14-2.33-2.14-1.21,0-2.16.8-2.84,2.39-.52,1.23-.79,2.55-.79,3.96,0,1.27.18,2.34.54,3.2.52,1.19,1.34,1.78,2.45,1.78,1.21,0,2.12-.68,2.75-2.05.48-1.07.73-2.29.73-3.66Z"/><path d="M69.07,83.76c0,1.91-.25,3.81-.76,5.68-.71,2.66-1.73,3.99-3.08,3.99-.99,0-1.83-.61-2.54-1.84-.26-.6-.52-1.22-.79-1.84l-.12.06c-.28.81-.57,1.61-.88,2.42-.42.93-1.06,1.39-1.9,1.39-2.56,0-3.84-3.07-3.84-9.21,0-1.41.04-2.52.12-3.32.14-.2.32-.3.54-.3s.48.09.79.26.45.37.45.59c0,.26-.07.67-.2,1.22-.13.55-.2.99-.2,1.31,0,5.24.67,7.85,2.02,7.85.87,0,1.56-.99,2.08-2.96.42-1.51.62-2.87.6-4.08v-2.9c0-.42.24-.63.73-.63.58,0,.88.4.88,1.21,0,.1-.02.25-.05.45s-.05.35-.05.45v3.72c0,.87.15,1.79.45,2.78.38,1.31.9,1.96,1.54,1.96.87,0,1.59-1.1,2.18-3.29.44-1.69.66-3.17.66-4.44s-.08-2.04-.24-2.33c0-.02-.07-.11-.21-.27-.14-.16-.21-.27-.21-.33,0-.22.09-.43.29-.63.19-.2.4-.3.62-.3.73,0,1.09,1.12,1.09,3.35Z"/><path d="M79.43,90.41c0,.89-.59,1.68-1.78,2.39-1.07.64-2.07.97-3.02.97-2.7,0-4.05-1.71-4.05-5.14,0-1.51.27-3.13.82-4.86.73-2.26,1.65-3.38,2.78-3.38.97,0,2.02.49,3.17,1.46,1.15.98,1.72,1.95,1.72,2.92,0,1.25-.5,2.34-1.51,3.26-1.01.93-2.14,1.39-3.41,1.39-.12,0-.38-.1-.77-.3s-.66-.3-.8-.3c-.26,0-.39.08-.39.24,0,2.32.76,3.47,2.3,3.47.79,0,1.51-.26,2.17-.79.4-.3.85-.78,1.33-1.42.38-.5.63-.76.76-.76.46,0,.7.28.7.85ZM77.35,84.85c0-.7-.2-1.36-.6-1.98-.4-.61-.94-.92-1.6-.92-.81,0-1.46.5-1.96,1.51-.42.85-.63,1.72-.63,2.63,0,.58.19,1.07.56,1.46.37.39.85.59,1.43.59.83,0,1.51-.35,2.05-1.06.5-.64.76-1.39.76-2.24Z"/><path d="M87.5,82.65c0,.08-.01.25-.03.51-.26.4-.51.6-.76.6-.16,0-.3-.1-.42-.3-.06-1.27-.58-1.9-1.57-1.9-.64,0-1.28,1.19-1.9,3.56-.24.87-.36,2.02-.36,3.47,0,1.85.05,2.99.15,3.41.02.06.07.19.15.38.08.19.12.34.12.44,0,.44-.3.66-.91.66-.68,0-1.03-.35-1.03-1.06,0-.1.02-.25.08-.44.05-.19.08-.34.08-.44,0-1.11-.05-2.77-.15-4.98-.1-2.22-.15-3.88-.15-4.98,0-.4.07-.65.21-.74.14-.09.41-.14.82-.14.5,0,.8.18.88.54.02.4.04.8.06,1.18.52-.8.83-1.26.91-1.36.44-.5.91-.76,1.39-.76.36,0,.73.11,1.09.33.2.12.48.43.83.94s.53.86.53,1.06Z"/><path d="M97.88,141.89c-.66,4.09-2.39,6.06-5.2,5.9-1.51-.1-2.8-.6-3.84-1.5l-.17.12v.99c-.02.95.06,1.65.24,2.1.02.05.1.21.27.5.16.28.24.46.24.52,0,.19-.07.37-.22.54-.15.17-.32.25-.53.25-.48,0-.82-.16-1.02-.48-.13-.24-.21-.63-.24-1.16-.05-.82-.07-1.65-.07-2.49,0-.48.04-1.21.11-2.17s.1-1.7.1-2.21c0-.51.03-1.26.11-2.25.08-.99.12-1.73.12-2.21v-2.3c0-.11-.03-.29-.08-.53-.06-.24-.08-.42-.08-.53,0-.31.21-.46.63-.46.27,0,.5.12.69.36.18.24.28.5.28.77,0,.21-.04.51-.11.89-.07.39-.11.68-.11.89v.63c.37-.64.74-1.29,1.11-1.93.87-1.21,2.02-1.81,3.45-1.81,1.54,0,2.71.64,3.49,1.91.64,1.05.96,2.38.96,3.99,0,.56-.04,1.12-.12,1.67ZM96.79,140.52c0-1.26-.22-2.36-.65-3.32-.56-1.24-1.39-1.87-2.48-1.87-1.41,0-2.61.94-3.59,2.83-.84,1.61-1.25,3.2-1.25,4.76v1.28c.16-.08.28-.12.36-.12.11,0,.21.08.3.24.09.16.16.27.23.32-.02.05-.04.06-.07.05-.03-.02-.05,0-.05.05,0,.08.06.23.19.44.63.98,1.59,1.46,2.89,1.46,1.22,0,2.14-.4,2.75-1.21.47-.6.83-1.55,1.11-2.86.18-.92.26-1.61.26-2.06Z"/><path d="M106.68,146.26c0,1.39-.31,2.59-.92,3.62-.73,1.24-1.73,1.86-3.02,1.86s-2.28-.51-2.92-1.52c-.53-.84-.8-1.95-.8-3.33s.31-2.71.92-4.04c.77-1.63,1.76-2.44,2.95-2.44.31,0,.74.18,1.3.53,1.66,1.03,2.49,2.8,2.49,5.32ZM105.52,146.24c0-1.03-.14-1.96-.41-2.78-.4-1.14-1.02-1.72-1.86-1.72-.97,0-1.72.64-2.27,1.91-.42.98-.63,2.04-.63,3.17,0,1.01.15,1.87.43,2.56.42.95,1.07,1.43,1.96,1.43.97,0,1.7-.55,2.2-1.64.39-.85.58-1.83.58-2.92Z"/><path d="M109.87,150.78c0,.42-.23.63-.68.63-.71,0-1.06-1.46-1.04-4.37l.07-10.85c0-.18-.02-.43-.07-.76-.05-.33-.07-.58-.07-.74.31-.23.56-.34.77-.34.23,0,.45.08.68.24.23.16.34.35.34.58,0,.16-.04.37-.12.63-.1.32-.15.52-.17.6-.19,1.1-.29,2.63-.29,4.59,0,3.17,0,4.7-.02,4.59.05,1.98.18,3.47.39,4.47,0,.05.04.16.11.33.07.17.11.3.11.4Z"/><path d="M113.01,141.58c0,.29-.07.72-.21,1.3-.14.58-.21,1.02-.21,1.31v5.34c0,.35.08.84.24,1.45-.06.13-.15.19-.27.19-.79,0-1.18-.38-1.18-1.14v-8.87c.21-.11.41-.17.6-.17s.39.06.6.17c.27.11.41.25.41.41ZM113.47,137.95c0,.55-.26.82-.77.82-.31,0-.59-.11-.85-.34-.26-.23-.39-.48-.39-.77,0-.55.27-.82.82-.82.32,0,.6.11.83.31s.35.48.35.8Z"/><path d="M121.75,148.52c0,.39-.33.91-.99,1.57-.66.66-1.2,1.04-1.62,1.16-.56.18-1.03.27-1.4.27-1.18,0-2.08-.43-2.71-1.28-.58-.76-.87-1.74-.87-2.95s.27-2.63.8-4.17c.66-1.9,1.48-2.86,2.47-2.86.47,0,1.09.23,1.86.69.77.46,1.21.9,1.3,1.32.11.5.17.99.17,1.47,0,1.77-.27,2.66-.8,2.66-.13,0-.28-.05-.46-.15-.18-.1-.27-.21-.27-.34,0-.06.03-.15.1-.25.06-.1.11-.17.12-.21.06-.21.1-.69.1-1.45,0-1.79-.4-2.68-1.21-2.68-.89,0-1.61.82-2.17,2.45-.42,1.26-.63,2.46-.63,3.59,0,.87.14,1.6.41,2.18.37.76.94,1.14,1.72,1.14.47,0,1.02-.24,1.64-.73.56-.44.98-.9,1.26-1.39.06-.16.16-.39.29-.68.08-.11.19-.17.34-.17.1,0,.21.11.35.33.14.22.21.39.21.5Z"/><path d="M129.95,141.55c-.13.71-.26,1.42-.38,2.13-.15.76-.23,1.47-.23,2.13v7.56c0,1.08-.33,1.94-.98,2.57s-1.53.95-2.62.95c-.6,0-1.26-.16-2.01-.48-.85-.35-1.44-.8-1.76-1.33-.08-.14-.12-.29-.12-.43,0-.47.23-.7.68-.7.1,0,.2.03.31.1.27.29.55.57.82.85.55.5,1.24.75,2.08.75,1.06,0,1.77-.37,2.13-1.11.21-.47.31-1.31.31-2.54,0-.16-.03-.48-.1-.97-.06-.4-.08-.76-.05-1.06-.45.42-.77.68-.97.8-.35.23-.74.34-1.16.34-1.1,0-1.93-.43-2.49-1.28-.5-.74-.75-1.68-.75-2.83,0-2.18.03-4.01.1-5.51.06-.52.35-.77.85-.77.61,0,.89.11.82.31-.31.84-.46,2.71-.46,5.63,0,2.26.64,3.38,1.92,3.38.79,0,1.41-.6,1.88-1.81.35-.93.52-1.88.5-2.83v-2.75c.02-.27.04-.62.06-1.04s.29-.61.79-.58c.58.05.85.23.82.53Z"/><path d="M178.35,108.45s-.07.15-.22.41c-.06.13-.13.56-.19,1.28-.37,3.3-.56,6.36-.56,9.16,0,2.3.25,3.81.75,4.52-.31.21-.55.31-.73.31-.69,0-1.11-.56-1.26-1.69-.13-1-.19-1.71-.19-2.13l.17-11.45c0-.23.15-.47.46-.73.31-.26.57-.39.8-.39.15,0,.34.08.59.25.25.17.37.32.37.45Z"/><path d="M187.56,124.06c-.09.18-.22.27-.39.27s-.44-.11-.82-.34v-1.47c0-5.35-.67-8.02-2-8.02-.42,0-.87.31-1.35.92-1.22,1.51-1.83,3.42-1.83,5.73,0,.31.04.75.13,1.34s.13,1.04.13,1.34c0,.24-.16.36-.49.36-.62,0-.93-.51-.93-1.52v-5.49c0-.15,0-.35.02-.63.02-.27.02-.48.02-.63,0-.21-.03-.52-.08-.92-.06-.4-.08-.7-.08-.89,0-.13.1-.28.3-.45.2-.17.36-.25.47-.25.21,0,.4.11.58.34-.05,1.05-.07,1.66-.07,1.84,0,.24,0,.48.02.7.15-.05.34-.31.58-.8.31-.61.56-1.03.77-1.26.39-.45.83-.68,1.33-.68.19,0,.48.07.87.22.87.32,1.49.85,1.86,1.59.63,1.27.94,2.96.94,5.05v3.65Z"/><path d="M196.19,109.03c0,.32-.24.48-.73.48-.1,0-.17-.02-.22-.05-.06-.69-.52-1.04-1.35-1.04-.79,0-1.4.91-1.84,2.72-.29,1.28-.43,2.5-.43,3.66.11-.02.26-.02.43,0h.65c.6,0,.89.18.89.53,0,.11-.02.27-.05.48-.26.15-.67.22-1.22.22-.42,0-.68.03-.78.1-.05.63-.07,1.76-.07,3.41v1.74c0,.77.09,1.56.29,2.34.03.08.05.15.05.22,0,.39-.27.58-.82.58-.48,0-.73-.65-.73-1.96,0-3.54.03-5.64.1-6.28.03,0-.38,0-1.23,0-.37,0-.56-.18-.56-.53,0-.47.32-.7.97-.7h.87c.03-.32.06-.73.1-1.23.24-4.29,1.44-6.43,3.6-6.43,1.39,0,2.08.58,2.08,1.74Z"/><path d="M200.06,115.34c0,.06,0,.2-.02.41-.21.32-.41.48-.6.48-.13,0-.24-.08-.34-.24-.05-1.01-.47-1.52-1.26-1.52-.52,0-1.02.95-1.52,2.85-.19.69-.29,1.62-.29,2.78,0,1.48.04,2.39.12,2.73.02.05.06.15.12.3.06.15.1.27.1.35,0,.35-.24.53-.73.53-.55,0-.82-.28-.82-.85,0-.08.02-.2.06-.35.04-.15.06-.27.06-.35,0-.89-.04-2.21-.12-3.99-.08-1.77-.12-3.1-.12-3.99,0-.32.06-.52.17-.59.11-.07.33-.11.65-.11.4,0,.64.15.7.43.02.32.03.64.05.94.42-.64.66-1.01.73-1.09.35-.4.73-.6,1.11-.6.29,0,.58.09.87.27.16.1.38.35.66.75s.42.68.42.85Z"/><path d="M207.48,124.64c0,.23-.18.34-.53.34-.39,0-.62-.16-.7-.48-.02-.05-.02-.36-.02-.94,0-.16-.02-.29-.07-.39-.9.66-1.88.99-2.92.99-.73,0-1.43-.2-2.1-.6-.77-.45-1.16-1.02-1.16-1.69s.46-1.3,1.38-1.93c.84-.58,1.61-.87,2.32-.87h2.39c.1-.1.15-.27.15-.51,0-1.08-.09-1.89-.27-2.44-.29-.92-.86-1.38-1.72-1.38-.61,0-1.18.39-1.69,1.16-.47.71-.7,1.39-.7,2.03v.27c0,.13-.06.19-.19.19-.16,0-.34-.1-.53-.29-.19-.19-.29-.36-.29-.51,0-.45.14-1.02.41-1.7.27-.68.57-1.2.89-1.56.4-.43.9-.65,1.5-.65.92,0,1.76.29,2.54.87.82.63,1.24,1.39,1.26,2.27l.07,7.83ZM206.19,120.8c0-.64-.5-.97-1.5-.97-.79,0-1.48.14-2.08.41-.76.35-1.14.89-1.14,1.59,0,.44.2.77.6,1.02.34.21.74.31,1.21.31.69,0,1.35-.23,1.97-.68.62-.45.93-1.01.93-1.69Z"/><path d="M214.46,117.97c0,.06-.06.1-.19.1-.15,0-.36-.05-.64-.16-.28-.1-.5-.16-.64-.16-.19,0-.48.02-.86.05-.38.03-.66.05-.83.05-1.6,0-2.51-.42-2.73-1.26.1-.13.19-.19.29-.19.11,0,.29.05.54.16s.46.16.62.16c.32,0,.81-.03,1.45-.08s1.13-.08,1.45-.08c.61,0,.99.11,1.14.34.02.03.06.19.12.46.05.21.15.33.29.36v.27Z"/><path d="M183.16,145.73c0,.57-.43,1.04-1.28,1.43-.71.31-1.39.46-2.05.46-.43,0-.93-.11-1.5-.32-.31-.13-.8-.47-1.47-1.02-.74-.6-1.11-1.01-1.11-1.24,0-.5.3-.73.89-.68h.14c.03.49.55,1.02,1.55,1.59.9.52,1.63.78,2.17.78.71,0,1.06-.24,1.06-.73,0-.29-.43-.69-1.3-1.21-1.19-.69-2.01-1.25-2.44-1.67-.89-.86-1.33-1.84-1.33-2.96,0-.84.22-1.64.65-2.4.5-.9,1.13-1.36,1.89-1.36.55,0,1.21.25,1.98.76.77.51,1.22,1.02,1.35,1.53.13.43.19.94.19,1.52,0,.63-.11,1.31-.34,2.05-.14.11-.31.17-.51.17-.11,0-.29-.04-.53-.13-.24-.09-.36-.18-.36-.28,0,.06.09-.11.27-.53.13-.27.19-.77.19-1.5,0-1.72-.54-2.59-1.62-2.59-.56,0-1.02.38-1.35,1.14-.29.61-.44,1.24-.44,1.87,0,.79.46,1.56,1.38,2.3.31.26,1.15.82,2.54,1.67.92.57,1.38,1.01,1.38,1.33Z"/><path d="M188.38,139.53c-.13.1-.44.18-.92.24-.53.06-.84.12-.92.17-.02.18-.02,1.07-.02,2.68,0,1.26.02,2.1.05,2.54,0,.18.04.46.12.85s.12.68.12.89c0,.13-.08.26-.24.39-.16.13-.31.19-.44.19-.32,0-.58-.33-.77-.99-.13-.48-.19-.94-.19-1.38v-5.03c-.09-.08-.46-.08-1.08,0-.5.06-.75-.12-.75-.56,0-.61.65-.89,1.96-.85l.31-4.37s-.02-.12-.06-.23c-.04-.1-.06-.18-.06-.23,0-.1.06-.19.19-.28.13-.09.28-.12.46-.11.56.05.85.33.85.85,0,.4-.06,1.01-.17,1.81-.11.81-.17,1.4-.17,1.79,0,.19.02.38.05.56l1.33-.07c.45,0,.68.18.68.53,0,.26-.11.46-.31.6Z"/><path d="M195.27,138.54c0,.06,0,.2-.02.41-.21.32-.41.48-.6.48-.13,0-.24-.08-.34-.24-.05-1.01-.47-1.52-1.26-1.52-.52,0-1.02.95-1.52,2.85-.19.69-.29,1.62-.29,2.78,0,1.48.04,2.39.12,2.73.02.05.06.15.12.3.06.15.1.27.1.35,0,.35-.24.53-.73.53-.55,0-.82-.28-.82-.85,0-.08.02-.2.06-.35.04-.15.06-.27.06-.35,0-.89-.04-2.21-.12-3.99-.08-1.77-.12-3.1-.12-3.99,0-.32.06-.52.17-.59.11-.07.33-.11.65-.11.4,0,.64.15.7.43.02.32.03.64.05.94.42-.64.66-1.01.73-1.09.35-.4.73-.6,1.11-.6.29,0,.58.09.87.27.16.1.38.35.66.75s.42.68.42.85Z"/><path d="M203.39,138.1c0,.5-.05,1.24-.16,2.24-.11.99-.16,1.85-.16,2.57,0,.29.03.84.08,1.66s.08,1.4.08,1.75c0,.71-.08,1.14-.24,1.28-.1.06-.23.1-.41.1-.35,0-.6-.15-.73-.46-.06-.31-.13-.6-.19-.89-.47.72-1.26,1.17-2.39,1.35-.42.06-.9-.12-1.45-.56-.5-.39-.83-.78-.99-1.17-.23-.53-.34-1.56-.34-3.08v-5.27c-.1-.49.18-.73.82-.73.45,0,.68.26.68.77,0,.77-.02,1.78-.07,3.02-.05,1.58-.07,2.59-.07,3.02-.02.58.11,1.16.39,1.74.32.69.73,1.04,1.23,1.04.82,0,1.46-.55,1.91-1.64.32-.82.48-1.72.48-2.71v-3.17c0-.13-.04-.31-.13-.54-.09-.23-.13-.42-.13-.57,0-.08,0-.17.02-.27.23-.21.45-.32.68-.34.73-.06,1.09.22,1.09.85Z"/><path d="M212.07,144.63c0,.39-.33.91-.99,1.57-.66.66-1.2,1.04-1.62,1.16-.56.18-1.03.27-1.4.27-1.18,0-2.08-.43-2.71-1.28-.58-.76-.87-1.74-.87-2.95s.27-2.63.8-4.17c.66-1.9,1.48-2.86,2.47-2.86.47,0,1.09.23,1.86.69.77.46,1.21.9,1.3,1.32.11.5.17.99.17,1.47,0,1.77-.27,2.66-.8,2.66-.13,0-.28-.05-.46-.15-.18-.1-.27-.21-.27-.34,0-.06.03-.15.1-.25.06-.1.11-.17.12-.21.06-.21.1-.69.1-1.45,0-1.79-.4-2.68-1.21-2.68-.89,0-1.61.82-2.17,2.45-.42,1.26-.63,2.46-.63,3.59,0,.87.14,1.6.41,2.18.37.76.94,1.14,1.72,1.14.47,0,1.02-.24,1.64-.73.56-.44.98-.9,1.26-1.39.06-.16.16-.39.29-.68.08-.11.19-.17.34-.17.1,0,.21.11.35.33.14.22.21.39.21.5Z"/><path d="M216.95,139.53c-.13.1-.44.18-.92.24-.53.06-.84.12-.92.17-.02.18-.02,1.07-.02,2.68,0,1.26.02,2.1.05,2.54,0,.18.04.46.12.85s.12.68.12.89c0,.13-.08.26-.24.39-.16.13-.31.19-.44.19-.32,0-.58-.33-.77-.99-.13-.48-.19-.94-.19-1.38v-5.03c-.09-.08-.46-.08-1.08,0-.5.06-.75-.12-.75-.56,0-.61.65-.89,1.96-.85l.31-4.37s-.02-.12-.06-.23c-.04-.1-.06-.18-.06-.23,0-.1.06-.19.19-.28.13-.09.28-.12.46-.11.56.05.85.33.85.85,0,.4-.06,1.01-.17,1.81-.11.81-.17,1.4-.17,1.79,0,.19.02.38.05.56l1.33-.07c.45,0,.68.18.68.53,0,.26-.11.46-.31.6Z"/><path d="M225,138.1c0,.5-.05,1.24-.16,2.24-.11.99-.16,1.85-.16,2.57,0,.29.03.84.08,1.66s.08,1.4.08,1.75c0,.71-.08,1.14-.24,1.28-.1.06-.23.1-.41.1-.36,0-.6-.15-.73-.46-.06-.31-.13-.6-.19-.89-.47.72-1.26,1.17-2.39,1.35-.42.06-.9-.12-1.45-.56-.5-.39-.83-.78-.99-1.17-.23-.53-.34-1.56-.34-3.08v-5.27c-.1-.49.18-.73.82-.73.45,0,.68.26.68.77,0,.77-.02,1.78-.07,3.02-.05,1.58-.07,2.59-.07,3.02-.02.58.11,1.16.39,1.74.32.69.73,1.04,1.23,1.04.82,0,1.46-.55,1.91-1.64.32-.82.48-1.72.48-2.71v-3.17c0-.13-.04-.31-.13-.54-.09-.23-.13-.42-.13-.57,0-.08,0-.17.02-.27.23-.21.45-.32.68-.34.72-.06,1.09.22,1.09.85Z"/><path d="M232.03,138.54c0,.06,0,.2-.02.41-.21.32-.41.48-.6.48-.13,0-.24-.08-.34-.24-.05-1.01-.47-1.52-1.26-1.52-.52,0-1.02.95-1.52,2.85-.19.69-.29,1.62-.29,2.78,0,1.48.04,2.39.12,2.73.02.05.06.15.12.3.06.15.1.27.1.35,0,.35-.24.53-.72.53-.55,0-.82-.28-.82-.85,0-.08.02-.2.06-.35.04-.15.06-.27.06-.35,0-.89-.04-2.21-.12-3.99-.08-1.77-.12-3.1-.12-3.99,0-.32.06-.52.17-.59.11-.07.33-.11.65-.11.4,0,.64.15.7.43.02.32.03.64.05.94.42-.64.66-1.01.73-1.09.35-.4.72-.6,1.11-.6.29,0,.58.09.87.27.16.1.38.35.66.75s.42.68.42.85Z"/><path d="M239.54,144.75c0,.71-.47,1.35-1.43,1.91-.85.52-1.66.77-2.42.77-2.16,0-3.24-1.37-3.24-4.11,0-1.21.22-2.5.65-3.89.58-1.8,1.32-2.71,2.22-2.71.77,0,1.62.39,2.54,1.17.92.78,1.38,1.56,1.38,2.33,0,1-.4,1.87-1.21,2.61-.81.74-1.72,1.11-2.73,1.11-.1,0-.3-.08-.62-.24s-.53-.24-.64-.24c-.21,0-.31.06-.31.19,0,1.85.61,2.78,1.84,2.78.63,0,1.21-.21,1.74-.63.32-.24.68-.62,1.06-1.14.31-.4.51-.6.6-.6.37,0,.56.23.56.68ZM237.88,140.3c0-.56-.16-1.09-.48-1.58-.32-.49-.75-.74-1.28-.74-.64,0-1.17.4-1.57,1.21-.34.68-.51,1.38-.51,2.1,0,.47.15.86.45,1.17.3.31.68.47,1.15.47.66,0,1.21-.28,1.64-.85.4-.52.6-1.11.6-1.79Z"/><path d="M133.53,63.46c0,2.45-.54,4.74-1.62,6.89-1.34,2.61-3.11,3.92-5.32,3.92-.81,0-1.56-.28-2.27-.85-.27.35-.45.53-.53.53-.18,0-.35-.06-.53-.17-.23-.63-.34-1.84-.34-3.62,0-1.35.02-3.36.07-6.03.05-2.67.07-4.68.07-6.05v-.39c0-.35.19-.53.58-.53.19,0,.4.08.63.23.23.15.34.32.34.5,0,.19-.06.43-.17.71-.11.28-.17.51-.17.69v.94c.19-.11.47-.51.84-1.18s.75-1.18,1.13-1.5c.59-.52,1.36-.77,2.29-.77,1.74,0,3.04.72,3.9,2.15.72,1.18,1.08,2.69,1.08,4.54ZM132.11,63.34c0-1.47-.21-2.68-.63-3.65-.56-1.35-1.48-2.03-2.76-2.03-.9,0-1.8.56-2.68,1.67-.73.92-1.23,1.89-1.52,2.92-.26.93-.39,1.93-.39,3v5c0,.76.2,1.41.6,1.96.45.61,1.05.92,1.79.92,1.29,0,2.44-.68,3.46-2.03.85-1.11,1.43-2.38,1.74-3.82.26-1.27.39-2.59.39-3.94Z"/><path d="M142.38,74.28c0,.23-.18.34-.53.34-.39,0-.62-.16-.7-.48-.02-.05-.02-.36-.02-.94,0-.16-.02-.29-.07-.39-.9.66-1.88.99-2.92.99-.73,0-1.43-.2-2.1-.6-.77-.45-1.16-1.02-1.16-1.69s.46-1.3,1.38-1.93c.84-.58,1.61-.87,2.32-.87h2.39c.1-.1.15-.27.15-.51,0-1.08-.09-1.89-.27-2.44-.29-.92-.86-1.38-1.72-1.38-.61,0-1.18.39-1.69,1.16-.47.71-.7,1.39-.7,2.03v.27c0,.13-.06.19-.19.19-.16,0-.34-.1-.53-.29-.19-.19-.29-.36-.29-.51,0-.45.14-1.02.41-1.7.27-.68.57-1.2.89-1.56.4-.43.9-.65,1.5-.65.92,0,1.76.29,2.54.87.82.63,1.24,1.39,1.26,2.27l.07,7.83ZM141.1,70.44c0-.64-.5-.97-1.5-.97-.79,0-1.48.14-2.08.41-.76.35-1.14.89-1.14,1.59,0,.44.2.77.6,1.02.34.21.74.31,1.21.31.69,0,1.35-.23,1.97-.68.62-.45.93-1.01.93-1.69Z"/><path d="M148.2,65.97c-.13.1-.44.18-.92.24-.53.06-.84.12-.92.17-.02.18-.02,1.07-.02,2.68,0,1.26.02,2.1.05,2.54,0,.18.04.46.12.85s.12.68.12.89c0,.13-.08.26-.24.39-.16.13-.31.19-.44.19-.32,0-.58-.33-.77-.99-.13-.48-.19-.94-.19-1.38v-5.03c-.09-.08-.46-.08-1.08,0-.5.06-.75-.12-.75-.56,0-.61.65-.89,1.96-.85l.31-4.37s-.02-.12-.06-.23c-.04-.1-.06-.18-.06-.23,0-.1.06-.19.19-.28.13-.09.28-.12.46-.11.56.05.85.33.85.85,0,.4-.06,1.01-.17,1.81-.11.81-.17,1.4-.17,1.79,0,.19.02.38.05.56l1.33-.07c.45,0,.68.18.68.53,0,.26-.11.46-.31.6Z"/><path d="M155.94,74.28c0,.23-.18.34-.53.34-.39,0-.62-.16-.7-.48-.02-.05-.02-.36-.02-.94,0-.16-.02-.29-.07-.39-.9.66-1.88.99-2.92.99-.73,0-1.43-.2-2.1-.6-.77-.45-1.16-1.02-1.16-1.69s.46-1.3,1.38-1.93c.84-.58,1.61-.87,2.32-.87h2.39c.1-.1.15-.27.15-.51,0-1.08-.09-1.89-.27-2.44-.29-.92-.86-1.38-1.72-1.38-.61,0-1.18.39-1.69,1.16-.47.71-.7,1.39-.7,2.03v.27c0,.13-.06.19-.19.19-.16,0-.34-.1-.53-.29-.19-.19-.29-.36-.29-.51,0-.45.14-1.02.41-1.7.27-.68.57-1.2.89-1.56.4-.43.9-.65,1.5-.65.92,0,1.76.29,2.54.87.82.63,1.24,1.39,1.26,2.27l.07,7.83ZM154.66,70.44c0-.64-.5-.97-1.5-.97-.79,0-1.48.14-2.08.41-.76.35-1.14.89-1.14,1.59,0,.44.2.77.6,1.02.34.21.74.31,1.21.31.69,0,1.35-.23,1.97-.68.62-.45.93-1.01.93-1.69Z"/><path d="M328.4,89.34c0,1.35-.85,2.39-2.54,3.12-1.35.58-2.8.87-4.35.87-1.43,0-2.99-.29-4.68-.87-2.17-.75-3.26-1.68-3.26-2.79,0-.6.29-.91.87-.91.46,0,.99.27,1.6.8.85.8,1.31,1.22,1.38,1.27.92.6,2.4.91,4.46.91,2.76,0,4.13-.73,4.13-2.18,0-.68-.59-1.51-1.78-2.5-.19-.15-1.1-.8-2.72-1.96-2.59-1.84-4.22-3.12-4.89-3.84-1.52-1.62-2.28-3.5-2.28-5.65,0-1.98.57-3.79,1.7-5.44,1.26-1.84,2.84-2.76,4.75-2.76,1.62,0,3.01.69,4.17,2.07,1.01,1.21,1.68,2.67,1.99,4.39.02.58.12,1.46.29,2.65l.29,1.31c0,1.93-.47,2.9-1.41,2.9-.24,0-.49-.14-.74-.42-.25-.28-.38-.54-.38-.78,0-.34.07-.83.2-1.49.13-.65.2-1.15.2-1.49,0-1.67-.26-3.14-.79-4.42-.7-1.74-1.75-2.61-3.16-2.61s-2.59.62-3.54,1.87c-.95,1.24-1.42,2.6-1.42,4.08,0,1.98,1.04,3.87,3.11,5.66,1.9,1.38,3.82,2.77,5.75,4.17,2.05,1.5,3.07,2.85,3.07,4.06Z"/><path d="M337.6,81c-.19.15-.65.27-1.38.36-.8.1-1.26.18-1.38.25-.02.27-.04,1.61-.04,4.02,0,1.89.02,3.15.07,3.81,0,.27.06.69.18,1.27.12.58.18,1.03.18,1.34,0,.19-.12.39-.36.58-.24.19-.46.29-.65.29-.48,0-.87-.5-1.16-1.49-.19-.73-.29-1.41-.29-2.07v-7.54c-.14-.12-.68-.12-1.62,0-.75.1-1.13-.18-1.13-.83,0-.92.98-1.34,2.94-1.27l.47-6.56c0-.07-.03-.19-.09-.34-.06-.16-.09-.27-.09-.34,0-.15.1-.28.29-.42.19-.13.42-.19.69-.16.85.07,1.27.5,1.27,1.27,0,.6-.08,1.51-.25,2.72-.17,1.21-.25,2.1-.25,2.68,0,.29.02.57.07.83l1.99-.11c.68,0,1.02.27,1.02.8,0,.39-.16.69-.47.91Z"/><path d="M350.22,85.28c0,2.08-.46,3.89-1.38,5.44-1.09,1.86-2.6,2.79-4.53,2.79s-3.42-.76-4.39-2.28c-.8-1.26-1.2-2.92-1.2-5s.46-4.07,1.38-6.05c1.16-2.44,2.63-3.66,4.42-3.66.46,0,1.11.27,1.96.8,2.49,1.55,3.73,4.2,3.73,7.97ZM348.48,85.24c0-1.55-.21-2.94-.62-4.17-.6-1.72-1.54-2.57-2.79-2.57-1.45,0-2.59.96-3.41,2.86-.63,1.47-.94,3.06-.94,4.75,0,1.52.22,2.8.65,3.84.63,1.43,1.61,2.14,2.94,2.14,1.45,0,2.55-.82,3.3-2.47.58-1.28.87-2.74.87-4.39Z"/><path d="M360.08,79.52c0,.1-.01.3-.04.62-.32.48-.62.73-.91.73-.19,0-.36-.12-.51-.36-.07-1.52-.7-2.28-1.89-2.28-.77,0-1.53,1.43-2.28,4.28-.29,1.04-.44,2.43-.44,4.17,0,2.22.06,3.59.18,4.1.02.07.08.22.18.45.1.23.14.4.14.53,0,.53-.36.8-1.09.8-.82,0-1.23-.42-1.23-1.27,0-.12.03-.3.09-.53.06-.23.09-.4.09-.53,0-1.33-.06-3.32-.18-5.98-.12-2.66-.18-4.65-.18-5.98,0-.48.08-.78.25-.89.17-.11.49-.16.98-.16.6,0,.95.22,1.05.65.02.48.05.96.07,1.41.63-.97.99-1.51,1.09-1.63.53-.6,1.09-.91,1.67-.91.44,0,.87.13,1.31.4.24.15.57.52,1,1.12.42.6.63,1.03.63,1.27Z"/><path d="M372.95,78.21c-.2,1.06-.39,2.13-.57,3.19-.23,1.14-.34,2.2-.34,3.19v11.35c0,1.62-.49,2.91-1.47,3.86-.98.95-2.29,1.43-3.93,1.43-.89,0-1.9-.24-3.01-.73-1.28-.53-2.16-1.2-2.65-1.99-.12-.22-.18-.43-.18-.65,0-.7.34-1.05,1.01-1.05.15,0,.3.05.47.15.41.43.82.86,1.23,1.27.82.75,1.86,1.12,3.12,1.12,1.59,0,2.66-.56,3.19-1.67.31-.7.47-1.97.47-3.81,0-.24-.05-.73-.15-1.45-.1-.6-.12-1.14-.07-1.59-.68.63-1.16,1.03-1.45,1.2-.53.34-1.11.51-1.74.51-1.64,0-2.89-.64-3.73-1.92-.75-1.11-1.12-2.53-1.12-4.24,0-3.26.05-6.02.15-8.27.1-.77.52-1.16,1.27-1.16.92,0,1.33.16,1.23.47-.46,1.26-.69,4.07-.69,8.45,0,3.38.96,5.08,2.88,5.08,1.18,0,2.11-.91,2.81-2.72.53-1.4.78-2.81.76-4.24v-4.13c.02-.41.05-.93.09-1.56.04-.63.43-.92,1.18-.87.87.07,1.28.34,1.23.8Z"/><path d="M381.39,81c-.19.15-.65.27-1.38.36-.8.1-1.26.18-1.38.25-.02.27-.04,1.61-.04,4.02,0,1.89.02,3.15.07,3.81,0,.27.06.69.18,1.27.12.58.18,1.03.18,1.34,0,.19-.12.39-.36.58-.24.19-.46.29-.65.29-.48,0-.87-.5-1.16-1.49-.19-.73-.29-1.41-.29-2.07v-7.54c-.14-.12-.68-.12-1.62,0-.75.1-1.13-.18-1.13-.83,0-.92.98-1.34,2.94-1.27l.47-6.56c0-.07-.03-.19-.09-.34-.06-.16-.09-.27-.09-.34,0-.15.1-.28.29-.42.19-.13.42-.19.69-.16.85.07,1.27.5,1.27,1.27,0,.6-.08,1.51-.25,2.72-.17,1.21-.25,2.1-.25,2.68,0,.29.02.57.07.83l1.99-.11c.68,0,1.02.27,1.02.8,0,.39-.16.69-.47.91Z"/><path d="M392.96,88.83c0,1.06-.71,2.02-2.14,2.86-1.28.77-2.49,1.16-3.62,1.16-3.24,0-4.86-2.05-4.86-6.16,0-1.81.33-3.76.98-5.84.87-2.71,1.98-4.06,3.33-4.06,1.16,0,2.43.59,3.81,1.76,1.38,1.17,2.07,2.34,2.07,3.5,0,1.5-.6,2.8-1.81,3.92s-2.57,1.67-4.1,1.67c-.15,0-.45-.12-.93-.36-.47-.24-.79-.36-.96-.36-.31,0-.47.1-.47.29,0,2.78.92,4.17,2.76,4.17.94,0,1.81-.31,2.61-.94.48-.36,1.02-.93,1.6-1.7.46-.6.76-.91.91-.91.56,0,.83.34.83,1.01ZM390.45,82.16c0-.85-.24-1.64-.72-2.37-.48-.74-1.12-1.11-1.92-1.11-.97,0-1.75.6-2.36,1.81-.51,1.02-.76,2.07-.76,3.15,0,.7.22,1.29.67,1.76.45.47,1.02.71,1.72.71.99,0,1.81-.42,2.47-1.27.6-.77.91-1.67.91-2.68Z"/><path d="M397.27,92.06c0,.63-.34.94-1.01.94-1.06,0-1.58-2.19-1.56-6.56l.11-16.28c0-.27-.04-.65-.11-1.14-.07-.5-.11-.86-.11-1.11.46-.34.84-.51,1.16-.51.34,0,.68.12,1.01.36.34.24.51.53.51.87,0,.24-.06.56-.18.94-.14.48-.23.79-.25.91-.29,1.64-.43,3.94-.43,6.89,0,4.76-.01,7.06-.04,6.89.07,2.97.27,5.21.58,6.71,0,.07.05.24.16.49s.16.45.16.6Z"/><path d="M402.05,92.06c0,.63-.34.94-1.02.94-1.06,0-1.58-2.19-1.56-6.56l.11-16.28c0-.27-.04-.65-.11-1.14-.07-.5-.11-.86-.11-1.11.46-.34.85-.51,1.16-.51.34,0,.68.12,1.01.36.34.24.51.53.51.87,0,.24-.06.56-.18.94-.15.48-.23.79-.25.91-.29,1.64-.44,3.94-.44,6.89,0,4.76-.01,7.06-.04,6.89.07,2.97.27,5.21.58,6.71,0,.07.05.24.16.49s.16.45.16.6Z"/><path d="M406.77,78.25c0,.43-.1,1.09-.31,1.96-.21.87-.31,1.52-.31,1.96v8.01c0,.53.12,1.26.36,2.17-.1.19-.23.29-.4.29-1.18,0-1.78-.57-1.78-1.7v-13.3c.31-.17.62-.25.91-.25s.59.08.91.25c.41.17.62.38.62.62ZM407.45,72.81c0,.82-.39,1.23-1.16,1.23-.46,0-.88-.17-1.27-.51-.39-.34-.58-.73-.58-1.16,0-.82.41-1.23,1.23-1.23.48,0,.9.16,1.25.47.35.31.53.71.53,1.2Z"/><path d="M420.76,92.6c-.14.27-.33.4-.58.4s-.66-.17-1.23-.51v-2.21c0-8.02-1-12.03-2.99-12.03-.63,0-1.3.46-2.02,1.38-1.83,2.27-2.74,5.14-2.74,8.59,0,.46.07,1.13.2,2.01.13.88.2,1.55.2,2.01,0,.36-.25.54-.74.54-.94,0-1.4-.76-1.4-2.28v-8.23c0-.22.01-.53.04-.94.02-.41.04-.72.04-.94,0-.31-.04-.77-.13-1.38-.08-.6-.13-1.05-.13-1.34,0-.19.15-.42.45-.67.3-.25.54-.38.71-.38.31,0,.6.17.87.51-.07,1.57-.11,2.49-.11,2.76,0,.36.01.71.04,1.05.22-.07.51-.47.87-1.2.46-.92.85-1.55,1.16-1.89.58-.68,1.24-1.01,1.99-1.01.29,0,.72.11,1.3.33,1.31.48,2.24,1.28,2.79,2.39.94,1.91,1.41,4.44,1.41,7.58v5.47Z"/><path d="M433.77,81.55c0,.15-.01.35-.04.62-.51,2.42-.76,4.36-.76,5.84,0,.75.04,1.9.11,3.44.07,1.55.11,2.71.11,3.48,0,1.5-.12,2.59-.36,3.26-.29.8-.85,1.46-1.67,1.99s-1.67.8-2.54.8c-1.01,0-2.19-.22-3.52-.65-1.69-.53-2.54-1.17-2.54-1.92,0-.65.25-.98.76-.98.22,0,.41.14.58.43.24.41.4.64.47.69.19.19.69.37,1.49.54.73.19,1.27.29,1.63.29,1.35,0,2.38-.53,3.08-1.59.6-.89.91-2.07.91-3.52,0-1.55-.13-2.78-.4-3.7-1.16,1.52-2.55,2.28-4.17,2.28-.48,0-1.05-.16-1.7-.49s-1.14-.68-1.45-1.07c-.65-.77-.98-1.99-.98-3.66,0-2.05.37-4.27,1.12-6.63.97-3.07,2.23-4.6,3.81-4.6,1.26,0,2.59,1.14,3.99,3.41.15.27.37.62.69,1.05.31.1.77.33,1.38.69ZM431.6,83.54c0-.51-.18-.93-.54-1.27-.07-1.02-.33-1.89-.76-2.61-.56-.89-1.31-1.34-2.25-1.34-.65,0-1.3.74-1.96,2.21-.48,1.11-.81,2.15-.98,3.12-.24,1.45-.36,2.68-.36,3.7,0,2.97.86,4.46,2.57,4.46,1.31,0,2.39-1.09,3.26-3.26.68-1.76,1.01-3.43,1.01-5Z"/><g id="arrow-line"><path d="M149.24,109.22c7.43-14.03,18.98-31.35,36.75-47.51,11.05-10.05,28.36-25.45,56.1-33.8,9.27-2.79,30.36-8,56.64-4.09,13.04,1.94,35.09,5.22,53.91,22.52,3.95,3.63,7.08,7.26,9.5,10.44" fill="none" stroke="#000" stroke-miterlimit="10"/><path d="M152.68,110.81c-.97,1.84-3.24,2.54-5.08,1.57-1.84-.97-2.54-3.24-1.57-5.08.97-1.84,3.24-2.54,5.08-1.57,1.84.97,2.54,3.24,1.57,5.08Z"/><path d="M365.61,61.7c-2.51-1.7-6.02-3.52-8.84-4.19l4.87-1.37,2.87-4.17c-.28,2.88.31,6.8,1.1,9.72Z"/></g></svg>
